<?xml version="1.0" encoding="iso-8859-1"?>
<!-- Generator: Adobe Illustrator 19.0.0, SVG Export Plug-In . SVG Version: 6.00 Build 0)  -->
<svg version="1.1" id="Capa_1" xmlns="http://www.w3.org/2000/svg" xmlns:xlink="http://www.w3.org/1999/xlink" x="0px" y="0px"
	 viewBox="0 0 511.997 511.997" style="enable-background:new 0 0 511.997 511.997;" xml:space="preserve">
<path style="fill:#34E5E2;" d="M500.943,7.967H380.322v40.626h0.143c10.461,0,20.716-2.319,30.488-6.055
	c2.882-1.102,6.047-1.631,9.357-1.447c11.326,0.628,20.582,9.819,21.284,21.14c0.814,13.144-9.604,24.058-22.572,24.058
	c-2.93,0-5.73-0.558-8.299-1.572c-9.35-3.693-19.198-5.967-29.251-5.967h-1.151v28.229c5.753,2.216,10.401,6.73,12.797,12.397
	h55.053c0,10.461-2.319,21.026-6.055,30.798c-1.102,2.882-1.631,6.047-1.447,9.357c0.628,11.326,9.818,20.582,21.14,21.284
	c13.144,0.814,24.058-9.604,24.058-22.572c0-2.93-0.558-5.73-1.572-8.299c-3.693-9.349-5.967-20.516-5.967-30.568h22.616V7.967z"/>
<path style="fill:#FDD8A8;" d="M153.529,106.523C73.74,104.447,8.406,168.508,8.406,247.829c0,0.23,12.412,24.824,12.412,24.824
	L8.406,386.426h48.268v70.332h82.744v54.802h151.698V249.327C291.115,172.473,230.357,108.521,153.529,106.523z"/>
<g>
	<path style="fill:#FFC477;" d="M153.529,106.523c-4.18-0.109-8.316-0.025-12.408,0.221c-0.312,11.249,3.849,22.291,11.559,30.492
		c8.042,8.557,19.39,13.465,31.131,13.465c5.403,0,10.679-1.002,15.684-2.977c0.976-0.385,1.947-0.747,2.912-1.084v6.156H81.785
		v158.818h41.731c-0.379,1.137-0.788,2.282-1.227,3.431c-2.156,5.64-3.079,11.579-2.742,17.651
		c1.198,21.599,18.381,38.897,39.969,40.235c0.892,0.055,1.794,0.083,2.685,0.083c23.556,0,42.72-19.164,42.72-42.72
		c0-5.403-1.002-10.68-2.977-15.684c-0.385-0.975-0.75-1.976-1.092-2.995h41.763v-0.083h24.001c-0.34,0.997-0.702,2-1.087,3.009
		c-2.157,5.64-3.081,11.58-2.744,17.654c0.973,17.537,12.484,32.237,28.334,37.863V249.327
		C291.115,172.473,230.357,108.521,153.529,106.523z"/>
	<rect x="139.418" y="456.757" style="fill:#FFC477;" width="71.709" height="20.104"/>
</g>
<path style="fill:#FFFFFF;" d="M49.51,244.417H34.432c0-5.073,0.326-10.182,0.967-15.185l14.955,1.919
	C49.794,235.52,49.51,239.984,49.51,244.417z M53.084,217.385l-14.555-3.935c13.347-49.363,56.577-84.551,107.573-87.561
	l0.889,15.052C102.474,143.567,64.736,174.288,53.084,217.385z"/>
<path style="fill:#C5BCF4;" d="M283.78,227.162c-0.702-11.321-9.957-20.595-21.284-21.223c-3.31-0.184-6.475,0.429-9.357,1.531
	c-9.771,3.736-20.026,6.055-30.488,6.055h-0.143v-40.626H101.887v40.626h0.143c10.461,0,20.717-2.319,30.488-6.055
	c2.882-1.102,6.047-1.631,9.357-1.447c11.326,0.628,20.582,9.819,21.284,21.14c0.814,13.144-9.604,24.058-22.572,24.058
	c-2.93,0-5.73-0.558-8.299-1.572c-9.349-3.693-19.198-5.967-29.251-5.967h-1.15v47.829h45.233c0,10.461-2.319,20.942-6.055,30.713
	c-1.102,2.882-1.631,6.047-1.447,9.357c0.628,11.326,9.819,20.582,21.14,21.284c13.144,0.814,24.058-9.604,24.058-22.572
	c0-2.93-0.558-5.73-1.572-8.299c-3.693-9.349-5.967-20.432-5.967-30.485h45.233v-47.914l0,0c10.053,0,21.051,2.357,30.401,6.05
	c2.569,1.014,5.369,1.572,8.299,1.572C274.176,251.219,284.595,240.306,283.78,227.162z"/>
<g>
	<path style="fill:#A199F2;" d="M182.538,320.079c-3.865,7.936-12.232,13.275-21.781,12.683
		c-8.285-0.514-15.411-5.617-18.894-12.752c-0.263,0.739-0.519,1.482-0.798,2.213c-1.102,2.882-1.631,6.047-1.447,9.357
		c0.628,11.326,9.819,20.582,21.14,21.284c13.144,0.814,24.058-9.604,24.058-22.572c0-2.93-0.558-5.73-1.572-8.299
		C182.995,321.37,182.772,320.719,182.538,320.079z"/>
	<path style="fill:#A199F2;" d="M147.121,271.407h-45.233v20.104h42.56C146.141,284.931,147.121,278.167,147.121,271.407z"/>
	<path style="fill:#A199F2;" d="M132.518,207.47c2.882-1.102,6.047-1.631,9.357-1.447c8.267,0.458,15.414,5.488,18.954,12.57
		c1.718-3.438,2.587-7.373,2.33-11.533c-0.702-11.321-9.957-20.512-21.284-21.14c-3.31-0.184-6.475,0.346-9.357,1.447
		c-9.771,3.736-20.026,6.055-30.488,6.055h-0.143v20.104h0.143C112.491,213.525,122.746,211.206,132.518,207.47z"/>
	<path style="fill:#A199F2;" d="M281.454,218.585c-3.707,7.428-11.38,12.532-20.245,12.532c-2.93,0-5.729-0.558-8.299-1.572
		c-9.349-3.693-20.349-6.05-30.401-6.05v20.104c10.053,0,21.051,2.357,30.401,6.05c2.569,1.014,5.369,1.572,8.299,1.572
		c12.968,0,23.386-10.914,22.572-24.058C283.591,224.108,282.761,221.212,281.454,218.585z"/>
	<path style="fill:#A199F2;" d="M179.926,291.511h42.583v-20.104h-45.233C177.276,277.928,178.245,284.877,179.926,291.511z"/>
</g>
<path style="fill:#34E5E2;" d="M343.13,291.426V172.9h-49.746c0.052-10.336,2.352-20.552,6.046-30.211
	c1.102-2.882,1.631-6.047,1.447-9.357c-0.628-11.326-9.818-21.085-21.14-21.786c-13.144-0.814-24.105,10.107-24.105,23.074
	c0,2.93,0.605,5.73,1.62,8.299c3.693,9.349,5.882,19.93,5.882,29.982l0,0h-40.626v40.626h0.143c10.461,0,20.716-2.403,30.488-6.14
	c2.882-1.102,6.047-1.631,9.357-1.447c11.326,0.628,20.582,9.819,21.284,21.14c0.814,13.144-9.604,24.141-22.572,24.141
	c-2.93,0-5.729-0.641-8.299-1.656c-9.35-3.693-20.349-5.967-30.401-5.967l0,0v47.829h67.844c-0.028,10.395-2.337,20.584-6.05,30.295
	c-1.102,2.882-1.631,6.047-1.447,9.357c0.628,11.326,9.818,20.582,21.14,21.284c13.144,0.814,24.058-9.604,24.058-22.572
	c0-2.93-0.558-5.729-1.572-8.299c-3.693-9.349-5.967-19.198-5.967-29.251v-0.815L343.13,291.426L343.13,291.426z"/>
<g>
	<path style="fill:#00CEE5;" d="M253.139,207.387c2.882-1.102,6.047-1.631,9.357-1.447c8.271,0.458,15.42,5.493,18.959,12.58
		c1.714-3.447,2.582-7.387,2.325-11.543c-0.702-11.321-9.957-20.512-21.284-21.14c-3.31-0.184-6.475,0.346-9.357,1.447
		c-9.771,3.736-20.026,6.14-30.488,6.14h-0.143v20.104h0.143C233.113,213.525,243.367,211.123,253.139,207.387z"/>
	<path style="fill:#00CEE5;" d="M290.353,271.324h-67.844v20.104h65.079C289.321,284.865,290.334,278.14,290.353,271.324z"/>
	<path style="fill:#00CEE5;" d="M320.514,272.139c0,6.544,0.977,12.998,2.668,19.288h19.949v-20.104h-22.616V272.139z"/>
	<path style="fill:#00CEE5;" d="M325.77,319.588c-3.868,7.929-12.232,13.262-21.775,12.67c-8.284-0.514-15.41-5.616-18.892-12.749
		c-0.263,0.738-0.52,1.479-0.799,2.21c-1.102,2.882-1.631,6.047-1.447,9.357c0.628,11.326,9.818,20.582,21.14,21.284
		c13.144,0.814,24.058-9.604,24.058-22.572c0-2.93-0.558-5.73-1.572-8.299C326.231,320.862,326.006,320.224,325.77,319.588z"/>
</g>
<path style="fill:#E9FF9C;" d="M394.852,126.645c-0.702-11.321-9.957-20.512-21.284-21.14c-3.31-0.184-6.475,0.346-9.357,1.447
	c-9.711,3.713-19.901,6.022-30.295,6.05V52.194H222.509v40.71h-0.143c-10.461,0-20.717-2.319-30.488-6.055
	c-2.882-1.102-6.047-1.631-9.357-1.447c-11.326,0.628-20.582,9.819-21.284,21.14c-0.814,13.144,9.604,24.058,22.572,24.058
	c2.93,0,5.73-0.558,8.299-1.572c9.349-3.693,19.198-5.967,29.251-5.967h1.15v49.84h40.626c0-10.053-2.19-20.632-5.882-29.982
	c-1.015-2.569-1.62-5.369-1.62-8.299c0-12.968,10.961-23.889,24.105-23.075c11.321,0.702,20.512,10.46,21.14,21.786
	c0.184,3.31-0.346,6.475-1.447,9.357c-3.693,9.659-5.993,19.875-6.046,30.211h40.533v-29.736h0.815
	c10.052,0,19.9,2.274,29.251,5.967c2.569,1.014,5.369,1.572,8.299,1.572C385.248,150.702,395.667,139.788,394.852,126.645z"/>
<g>
	<path style="fill:#CFFF26;" d="M222.509,152.795v20.104h40.626c0-6.642-0.973-13.509-2.687-20.104H222.509z"/>
	<path style="fill:#CFFF26;" d="M222.509,102.956h-1.15c-10.053,0-19.9,2.274-29.251,5.967c-2.569,1.014-5.369,1.572-8.299,1.572
		c-8.863,0-16.533-5.1-20.241-12.523c-1.31,2.62-2.141,5.512-2.33,8.57c-0.814,13.144,9.604,24.058,22.572,24.058
		c2.93,0,5.73-0.558,8.299-1.572c9.349-3.693,19.198-5.967,29.251-5.967h1.15v-20.105H222.509z"/>
	<path style="fill:#CFFF26;" d="M298.649,124.745c0.257-0.721,0.508-1.444,0.78-2.16c1.102-2.882,1.631-6.047,1.447-9.357
		c-0.628-11.326-9.818-21.085-21.14-21.786c-13.144-0.814-24.105,10.107-24.105,23.075c0,2.93,0.605,5.73,1.62,8.299
		c0.235,0.596,0.446,1.21,0.669,1.815c3.881-8.076,12.271-13.675,21.815-13.084C288.035,112.06,295.173,117.448,298.649,124.745z"/>
	<path style="fill:#CFFF26;" d="M293.384,172.9h40.533v-20.104h-37.741C294.439,159.363,293.418,166.104,293.384,172.9z"/>
	<path style="fill:#CFFF26;" d="M392.522,118.075c-3.709,7.424-11.379,12.523-20.241,12.523c-2.93,0-5.73-0.558-8.299-1.572
		c-9.35-3.693-19.198-5.967-29.251-5.967h-0.815v20.104h0.815c10.052,0,19.9,2.274,29.251,5.967
		c2.569,1.014,5.369,1.572,8.299,1.572c12.968,0,23.386-10.914,22.572-24.058C394.663,123.587,393.831,120.694,392.522,118.075z"/>
</g>
<g>
	<path style="fill:#00CEE5;" d="M410.952,42.538c2.882-1.102,6.047-1.631,9.357-1.447c8.267,0.458,15.413,5.488,18.954,12.57
		c1.718-3.438,2.588-7.373,2.33-11.533c-0.702-11.321-9.957-20.512-21.284-21.14c-3.31-0.184-6.475,0.346-9.357,1.447
		c-9.771,3.736-20.026,6.055-30.488,6.055h-0.143v20.104h0.143C390.925,48.593,401.18,46.274,410.952,42.538z"/>
	<path style="fill:#00CEE5;" d="M448.171,99.271h-55.053c-2.396-5.667-7.044-10.18-12.797-12.397v20.104
		c5.753,2.216,10.401,6.73,12.797,12.397h52.396C447.198,112.788,448.171,106.009,448.171,99.271z"/>
	<path style="fill:#00CEE5;" d="M480.96,119.374h19.983V99.271h-22.616C478.327,105.772,479.289,112.733,480.96,119.374z"/>
	<path style="fill:#00CEE5;" d="M483.589,148.025c-3.865,7.936-12.232,13.275-21.781,12.684
		c-8.286-0.514-15.412-5.618-18.894-12.753c-0.263,0.74-0.519,1.484-0.798,2.214c-1.102,2.882-1.631,6.047-1.447,9.357
		c0.628,11.326,9.818,20.582,21.14,21.284c13.144,0.814,24.058-9.604,24.058-22.572c0-2.93-0.558-5.73-1.572-8.299
		C484.046,149.318,483.823,148.665,483.589,148.025z"/>
</g>
<rect x="283.581" y="370.06" width="15.078" height="141.509"/>
<path d="M139.418,449.219H64.213v-70.332h-47.4L28.555,271.25l-1.006-1.994c-3.772-7.476-9.625-19.108-11.593-23.107
	c0.866-69.892,55.732-127.664,125.619-131.879l-0.908-15.051c-78.393,4.729-139.8,70.007-139.8,148.61c0,1.931,0,1.931,7.008,15.882
	c2.02,4.022,4.041,8.031,5.206,10.343L0,393.965h49.135v70.332h82.744v47.263h15.078v-47.263h64.174v-15.078h-64.174H139.418z"/>
<path d="M486.3,126.913h22.181V0.428H372.782v55.704h7.682c10.645,0,21.808-2.204,33.182-6.553c1.982-0.757,4.08-1.084,6.246-0.962
	c7.486,0.416,13.714,6.599,14.177,14.079c0.261,4.224-1.18,8.235-4.058,11.298c-2.882,3.066-6.785,4.754-10.99,4.754
	c-1.913,0-3.773-0.352-5.529-1.045c-10.909-4.309-21.682-6.493-32.019-6.493h-8.69v26.732c-3.875-0.068-7.658,0.591-11.264,1.969
	c-6.863,2.625-13.584,4.327-20.064,5.09V44.655H214.97V84.94c-6.58-0.744-13.412-2.462-20.399-5.133
	c-3.977-1.521-8.174-2.176-12.467-1.933c-15.241,0.845-27.446,12.969-28.391,28.2c-0.522,8.419,2.362,16.431,8.121,22.557
	c5.678,6.041,13.689,9.506,21.976,9.506c3.817,0,7.54-0.707,11.068-2.099c6.861-2.71,13.593-4.418,20.092-5.099v34.422H94.349
	v55.704h7.682c10.646,0,21.809-2.204,33.18-6.553c1.983-0.758,4.082-1.082,6.247-0.962c7.487,0.415,13.714,6.599,14.177,14.079
	c0.262,4.223-1.179,8.235-4.058,11.298c-2.882,3.066-6.785,4.754-10.99,4.754c-1.913,0-3.773-0.352-5.528-1.045
	c-10.91-4.309-21.683-6.493-32.02-6.493h-8.69v62.907h44.804c-0.746,6.648-2.463,13.508-5.129,20.483
	c-1.521,3.977-2.171,8.172-1.933,12.467c0.845,15.24,12.969,27.446,28.2,28.39c0.649,0.04,1.296,0.06,1.939,0.06
	c7.704,0,14.964-2.867,20.618-8.18c6.041-5.678,9.506-13.689,9.506-21.976c0-3.817-0.707-7.54-2.099-11.067
	c-2.506-6.346-4.238-13.4-5.001-20.177h44.794v-0.083h52.304c-0.763,6.48-2.467,13.199-5.09,20.062
	c-1.522,3.977-2.172,8.172-1.934,12.468c0.845,15.24,12.969,27.446,28.201,28.39c0.649,0.04,1.296,0.06,1.939,0.06
	c7.705,0,14.964-2.866,20.618-8.18c6.041-5.678,9.506-13.689,9.506-21.976c0-3.818-0.707-7.542-2.1-11.067
	c-2.663-6.744-4.358-13.363-5.063-19.758h22.241V165.361h-9.214v-14.283c6.395,0.706,13.014,2.4,19.758,5.064
	c3.527,1.393,7.25,2.099,11.068,2.099c8.288,0,16.298-3.465,21.975-9.506c5.591-5.948,8.462-13.672,8.147-21.822h37.793
	c-0.758,6.7-2.492,13.686-5.121,20.565c-1.522,3.977-2.172,8.172-1.934,12.468c0.845,15.242,12.969,27.446,28.201,28.391
	c0.649,0.04,1.295,0.06,1.939,0.06c7.705,0,14.965-2.867,20.618-8.18c6.041-5.678,9.506-13.689,9.506-21.976
	c0-3.818-0.707-7.541-2.1-11.068C488.793,140.816,487.061,133.731,486.3,126.913z M169.737,283.972v7.539
	c0,10.684,2.366,22.805,6.493,33.254c0.694,1.756,1.045,3.617,1.045,5.528c0,4.205-1.689,8.108-4.754,10.99
	c-3.062,2.878-7.075,4.322-11.298,4.058c-7.48-0.463-13.663-6.69-14.079-14.177c-0.12-2.162,0.204-4.265,0.962-6.247
	c4.348-11.371,6.553-22.609,6.553-33.406v-7.539h-45.233V251.56c6.498,0.683,13.231,2.389,20.093,5.1
	c3.527,1.392,7.25,2.099,11.067,2.099c8.288,0,16.298-3.465,21.976-9.506c5.759-6.127,8.643-14.138,8.121-22.557
	c-0.944-15.231-13.15-27.355-28.391-28.2c-4.294-0.241-8.49,0.412-12.467,1.933c-6.987,2.672-13.819,4.39-20.398,5.133v-25.123
	h105.544v40.626h7.682c10.646,0,21.809-2.204,33.18-6.553c2.11-0.806,4.206-1.16,6.248-1.046
	c7.483,0.415,13.711,6.636,14.177,14.162l0,0c0.031,0.506,0.035,1.008,0.018,1.507c-0.144,3.659-1.574,7.087-4.113,9.789
	c-2.883,3.067-6.773,4.756-10.952,4.756c-1.772,0-3.633-0.38-5.528-1.129c-7.843-3.098-16.612-5.204-24.994-6.061
	c-2.773-0.286-5.51-0.432-8.177-0.432h-7.539v47.914H169.737z M335.591,283.888h-22.616v8.354c0,10.338,2.185,21.111,6.493,32.021
	c0.694,1.755,1.045,3.616,1.045,5.528c0,4.205-1.689,8.108-4.753,10.99c-3.063,2.879-7.074,4.324-11.298,4.058
	c-7.48-0.463-13.664-6.69-14.079-14.177c-0.12-2.162,0.204-4.265,0.962-6.247c4.316-11.287,6.519-22.378,6.549-32.967l0.021-7.56
	h-67.866v-32.292c6.667,0.782,13.689,2.534,20.094,5.064c3.527,1.392,7.25,2.099,11.067,2.099c8.288,0,16.298-3.465,21.975-9.506
	c5.402-5.748,8.274-13.154,8.177-21c-0.005-0.545-0.023-1.092-0.057-1.64c-0.943-15.231-13.148-27.356-28.39-28.201
	c-4.293-0.24-8.488,0.412-12.467,1.933c-7.06,2.7-13.893,4.44-20.398,5.201v-25.106h40.626v-7.539c0-1.332-0.035-2.679-0.106-4.037
	c-0.493-9.507-2.687-19.558-6.304-28.715c-0.726-1.836-1.094-3.697-1.094-5.528c0-4.292,1.825-8.47,5.01-11.463
	c1.152-1.084,2.427-1.965,3.784-2.631c0.184-0.09,0.376-0.159,0.563-0.241c0.272-0.12,0.542-0.248,0.82-0.351
	c1.878-0.693,3.882-0.992,5.925-0.864c0.918,0.057,1.819,0.209,2.695,0.448c6.132,1.67,11.014,7.547,11.385,14.231
	c0.001,0.018-0.001,0.035,0,0.053c0.112,2.143-0.211,4.227-0.963,6.194c-0.806,2.11-1.515,4.212-2.173,6.309
	c-2.842,9.046-4.325,17.953-4.37,26.556l-0.038,7.578h49.784v103.45H335.591z M383.269,138.408
	c-2.882,3.066-6.785,4.754-10.99,4.754c-1.913,0-3.773-0.352-5.529-1.045c-10.909-4.309-21.682-6.493-32.019-6.493h-8.355v29.736
	h-24.979c0.77-6.472,2.467-13.165,5.072-19.979c0.571-1.492,1.018-3.014,1.343-4.56c0.433-2.063,0.646-4.167,0.638-6.302
	c-0.002-0.534-0.018-1.07-0.048-1.606c-0.503-9.069-5.074-17.227-11.838-22.553c-0.712-0.561-1.448-1.09-2.206-1.585
	c-0.758-0.496-1.539-0.958-2.339-1.384c-3.602-1.918-7.607-3.109-11.817-3.37c-8.265-0.51-16.211,2.382-22.349,8.15
	c-6.203,5.831-9.761,14.013-9.761,22.449c0,3.736,0.723,7.46,2.148,11.068c2.489,6.301,4.173,13.082,4.918,19.673h-25.111v-49.84
	h-8.69c-10.337,0-21.11,2.185-32.019,6.493c-1.757,0.694-3.618,1.045-5.529,1.045c-4.205,0-8.108-1.689-10.99-4.754
	c-2.879-3.062-4.319-7.074-4.058-11.298c0.463-7.48,6.69-13.663,14.177-14.079c2.157-0.122,4.264,0.204,6.247,0.962
	c11.372,4.348,22.534,6.553,33.18,6.553h7.682v-40.71h96.329v60.828l7.56-0.021c10.589-0.029,21.681-2.231,32.968-6.548
	c1.981-0.758,4.081-1.081,6.247-0.962c1.364,0.075,2.684,0.348,3.937,0.779l0.524,0.202c0.462,0.178,0.913,0.381,1.352,0.602
	c0.038,0.019,0.075,0.039,0.113,0.058c0.399,0.205,0.787,0.429,1.166,0.668c0.057,0.036,0.116,0.072,0.173,0.11
	c0.365,0.237,0.718,0.491,1.059,0.758c0.051,0.04,0.105,0.077,0.156,0.119c0.378,0.302,0.743,0.62,1.09,0.956
	c0.004,0.004,0.009,0.007,0.013,0.011c1.46,1.414,2.64,3.118,3.441,5.014l0.006,0.015c0.634,1.499,1.042,3.106,1.147,4.786l0,0
	C387.588,131.334,386.148,135.347,383.269,138.408z M470.788,111.835v7.539c0,10.739,2.366,22.89,6.493,33.338
	c0.694,1.756,1.045,3.617,1.045,5.528c0,4.205-1.689,8.108-4.754,10.99c-3.064,2.879-7.071,4.325-11.298,4.058
	c-7.48-0.463-13.664-6.69-14.079-14.177c-0.12-2.163,0.204-4.265,0.963-6.248c4.347-11.372,6.553-22.64,6.553-33.489v-7.539H397.7
	c-2.496-3.901-5.869-7.182-9.839-9.577V86.627c6.499,0.683,13.231,2.389,20.092,5.099c3.527,1.393,7.25,2.099,11.068,2.099
	c8.288,0,16.298-3.465,21.975-9.506c5.759-6.127,8.642-14.137,8.12-22.556c-0.943-15.231-13.148-27.356-28.39-28.201
	c-4.295-0.241-8.489,0.413-12.466,1.933c-6.986,2.671-13.82,4.389-20.399,5.132V15.505h105.544v96.329h-22.618V111.835z"/>
<rect x="376.298" y="212.519" width="15.078" height="15.078"/>
<rect x="406.453" y="212.519" width="15.078" height="15.078"/>
<rect x="436.609" y="212.519" width="15.078" height="15.078"/>
<rect x="496.919" y="212.519" width="15.078" height="15.078"/>
<rect x="466.764" y="212.519" width="15.078" height="15.078"/>
<rect x="406.453" y="248.203" width="15.078" height="15.078"/>
<rect x="376.298" y="248.203" width="15.078" height="15.078"/>
<rect x="466.764" y="248.203" width="15.078" height="15.078"/>
<rect x="496.919" y="248.203" width="15.078" height="15.078"/>
<rect x="436.609" y="248.203" width="15.078" height="15.078"/>
<rect x="496.919" y="283.887" width="15.078" height="15.078"/>
<rect x="466.764" y="283.887" width="15.078" height="15.078"/>
<rect x="436.609" y="283.887" width="15.078" height="15.078"/>
<rect x="376.298" y="283.887" width="15.078" height="15.078"/>
<rect x="406.453" y="283.887" width="15.078" height="15.078"/>
<g>
</g>
<g>
</g>
<g>
</g>
<g>
</g>
<g>
</g>
<g>
</g>
<g>
</g>
<g>
</g>
<g>
</g>
<g>
</g>
<g>
</g>
<g>
</g>
<g>
</g>
<g>
</g>
<g>
</g>
</svg>
