<svg id="Filled" height="512" viewBox="0 0 512 512" width="512" xmlns="http://www.w3.org/2000/svg"><path d="m480 296v-160c0-61.856-48-112-104-112s-104 50.144-104 112v160z" fill="#f7b030"/><g fill="#f0c6a4"><path d="m328 208h96v88h-96z"/><path d="m40 360h48v128h-48z"/><path d="m216 360h48v128h-48z"/></g><path d="m264 312v48h-32v80h-160v-80h-32v-48a96 96 0 0 1 96-96h32a96 96 0 0 1 96 96z" fill="#395a8d"/><path d="m104 224 48 72 48-72z" fill="#dadcde"/><path d="m72 440h160v48h-160z" fill="#f78a25"/><path d="m240 128h-24v24a24 24 0 1 0 24-24z" fill="#f0c6a4"/><path d="m72 80v88c4.014 40.426 38.517 72 80 72a80 80 0 0 0 80-80v-80z" fill="#f7cca9"/><path d="m256 128v6.12a23.891 23.891 0 0 0 -16-6.12h-8c-32-8-32-32-32-32 0 72-128 72-128 72h-48s24-8 24-32v-8a104 104 0 0 1 208 0z" fill="#8c5237"/><path d="m312 152v-24h-24a24 24 0 1 0 24 24z" fill="#f0c6a4"/><path d="m464 128h-24v24a24 24 0 1 0 24-24z" fill="#f0c6a4"/><path d="m264 312h224v176h-224z" fill="#f0c6a4"/><path d="m487.99 306.01a.375.375 0 0 1 .01.11v13.88l-32 24v48h-160v-48l-32-24 .18-13.88-.18-.12h.37a96.031 96.031 0 0 1 71.31-86.84c-.82 11.35-.47 57.96 40.32 68.84 40.91-10.91 41.14-57.72 40.32-68.94a96.033 96.033 0 0 1 71.67 86.94h.01z" fill="#f78a25"/><path d="m304 392h144v32h-144z" fill="#f7cca9"/><path d="m464 488h-176l16-64h144z" fill="#8c5237"/><path d="m376 64c16 48 80 64 80 64v32a80 80 0 0 1 -80 80 80 80 0 0 1 -80-80v-32s64-16 80-64z" fill="#f7cca9"/><path d="m152 16a112.127 112.127 0 0 0 -112 112v8c0 17.789-17.814 24.163-18.53 24.411a8 8 0 0 0 2.53 15.589h41.062a87.431 87.431 0 0 0 22.356 44.026 104.015 104.015 0 0 0 -55.418 91.974v176a8 8 0 0 0 8 8h448a8 8 0 0 0 8-8v-176a103.636 103.636 0 0 0 -8-40.037v-98.831a31.915 31.915 0 0 0 -.114-42.4 123 123 0 0 0 -33.049-79.4c-21.359-22.784-49.358-35.332-78.837-35.332s-57.478 12.548-78.837 35.333a123 123 0 0 0 -33.049 79.4c-.039.044-.076.088-.114.132v-2.865a112.127 112.127 0 0 0 -112-112zm146.246 464 12-48h131.508l12 48zm13.754-64v-16h128v16zm168 64h-9.754l-14.246-56.983v-23.017a8 8 0 0 0 8-8v-43.792l16-11zm0-328a16.019 16.019 0 0 1 -16 16c-.123 0-.244-.013-.366-.015.238-2.631.366-5.293.366-7.985v-24a16.019 16.019 0 0 1 16 16zm-104 80a72.081 72.081 0 0 1 -72-72v-26.024a171.349 171.349 0 0 0 29.885-12.983c18.735-10.409 33.015-23.421 42.09-38.214 19.29 31.679 57.2 46.462 72.025 51.212v26.009a72.081 72.081 0 0 1 -72 72zm31.833 10.04c-2.005 13.3-9.138 30.706-31.833 37.641-22.7-6.936-29.83-24.349-31.834-37.642a87.988 87.988 0 0 0 63.667 0zm-96.218-22.12a103.625 103.625 0 0 0 -31.615 25.633v-62.566a31.94 31.94 0 0 0 8 1.013 32.483 32.483 0 0 0 3.281-.167 87.994 87.994 0 0 0 20.334 36.087zm149.105-36.093a31.827 31.827 0 0 0 11.28-.84v62.572a103.676 103.676 0 0 0 -31.611-25.645 87.977 87.977 0 0 0 20.331-36.087zm-151.883-121.552c18.302-19.523 42.154-30.275 67.163-30.275s48.861 10.752 67.163 30.275a106.629 106.629 0 0 1 27.79 58.5 31.937 31.937 0 0 0 -6.953-.775h-6.934c-7.451-2.1-60.043-18.229-73.476-58.53a8 8 0 0 0 -15.18 0c-13.436 40.311-66.051 56.44-73.475 58.53h-6.935a31.937 31.937 0 0 0 -6.953.77 106.629 106.629 0 0 1 27.79-58.495zm-20.837 73.725v24c0 2.691.128 5.352.366 7.982-.123 0-.243.018-.366.018a16 16 0 0 1 0-32zm-16 176a88 88 0 0 1 52.63-80.594q1.421 1.024 2.883 1.993a79.551 79.551 0 0 0 2.779 19.942c4.208 15.15 15.2 34.8 43.646 42.389a8.009 8.009 0 0 0 4.124 0c28.45-7.586 39.438-27.239 43.646-42.389a79.551 79.551 0 0 0 2.779-19.942q1.465-.97 2.889-2a88.021 88.021 0 0 1 52.624 80.601v5.792l-28.532 19.616a8 8 0 0 0 -3.468 6.592v40h-144v-40a8 8 0 0 0 -3.468-6.592l-28.532-19.616zm0 25.208 16 11v43.792a8 8 0 0 0 8 8v23.017l-14.246 56.983h-9.754zm-16-185.208a16.019 16.019 0 0 1 -16 16c-.123 0-.244-.013-.366-.015.238-2.631.366-5.293.366-7.985v-24a16.019 16.019 0 0 1 16 16zm-207.929 8a38.6 38.6 0 0 0 7.929-24v-8a96 96 0 0 1 191.74-7.048 31.917 31.917 0 0 0 -7.74-.952h-6.951c-10.252-2.727-17.561-7.535-21.715-14.313a22.153 22.153 0 0 1 -3.334-9.787 8 8 0 0 0 -16 .1c0 63.169-118.8 64-120 64zm33.256 15.7c12.117-.647 34.345-2.669 56.839-9 38.635-10.866 56.837-28.426 64.65-45.836 4.711 5.026 11.477 9.782 21.184 13.111v26.025a72.081 72.081 0 0 1 -42.184 65.51l-.139-.087-.131.21a71.563 71.563 0 0 1 -29.546 6.367 72.5 72.5 0 0 1 -70.673-56.3zm87.218 70.736-16.545 26.47-16.541-26.467a88.273 88.273 0 0 0 33.086-.006zm-104.545 233.564h-16v-112h16zm80 0h-64v-32h64zm80 0h-64v-32h64zm32 0h-16v-112h16zm0-128h-16v-24a8 8 0 0 0 -16 0v104h-144v-104a8 8 0 0 0 -16 0v24h-16v-40a88 88 0 0 1 52.517-80.543 88.428 88.428 0 0 0 10.869 6.654l33.83 54.129a8 8 0 0 0 13.568 0l33.89-54.223a88.114 88.114 0 0 0 10.7-6.616 88.021 88.021 0 0 1 52.626 80.599zm8-80.043a104.2 104.2 0 0 0 -47.61-52.046 87.977 87.977 0 0 0 20.331-36.087 31.855 31.855 0 0 0 27.279-10.692z"/><circle cx="184" cy="160" r="8"/><circle cx="344" cy="160" r="8"/><circle cx="408" cy="160" r="8"/><path d="m394.343 186.343c-.057.057-6.2 5.657-18.343 5.657s-18.286-5.6-18.343-5.657a8 8 0 0 0 -11.314 11.314c1.057 1.058 10.885 10.343 29.657 10.343 18.771 0 28.6-9.285 29.657-10.343a8 8 0 0 0 -11.314-11.314z"/><path d="m152 208c18.772 0 28.6-9.285 29.657-10.343a8 8 0 0 0 -11.314-11.314c-.057.057-6.2 5.657-18.343 5.657s-18.286-5.6-18.343-5.657a8 8 0 1 0 -11.314 11.314c1.057 1.058 10.886 10.343 29.657 10.343z"/></svg>